<svg xmlns="http://www.w3.org/2000/svg" width="102.498" height="37.147" viewBox="0 0 102.498 37.147">
  <g id="Layer_x0020_1" transform="translate(0.184 0.085)">
    <g id="_2854203277024" transform="translate(-0.184 -0.085)">
      <path id="Path_1" data-name="Path 1" d="M107.4,1300v1.209h-2.38v5.373H103.38v-5.373H101V1300Zm7.554,0v6.581h-1.643v-2.672h-3.267v2.672H108.4V1300h1.643v2.634h3.267V1300Zm6.336,5.373v1.208h-4.853V1300h4.787v1.209h-3.144v1.378h3v1.209h-3v1.577Z" transform="translate(-100.045 -1287.724)" fill="#f58634"/>
      <path id="Path_2" data-name="Path 2" d="M25.359,28.706a24.862,24.862,0,0,1-.529-5.042,22.112,22.112,0,0,1,.689-5.7,27.162,27.162,0,0,1,1.709-4.768A32.533,32.533,0,0,1,29.4,9.33C30.166,8.2,30.864,7.2,31.5,6.356c.236-.312.453-.6.652-.869s.368-.519.519-.755a5.768,5.768,0,0,0,.916-1.766H32.9a3.692,3.692,0,0,0-.84.113,11.161,11.161,0,0,0-1.1.359c-.906.312-1.926.642-3.05.982s-2.3.689-3.56,1.02-2.54.652-3.853.963-2.625.567-3.919.793-2.549.406-3.758.529a30.758,30.758,0,0,1-3.343.189,15.632,15.632,0,0,1-1.992-.132,12.507,12.507,0,0,1-2.228-.472,11.365,11.365,0,0,1-2.134-.9,6.7,6.7,0,0,1-1.794-1.4,5.984,5.984,0,0,1-1.2-1.973A6.169,6.169,0,0,1-.154.369L-.088.19c.434,1.067,1.567,1.9,3.38,2.512a22.789,22.789,0,0,0,7.365.821,21.488,21.488,0,0,0,2.691-.236c1.19-.161,2.521-.349,3.985-.585s3.022-.491,4.646-.774,3.173-.548,4.646-.821C28.041.851,29.372.615,30.609.4s2.21-.368,2.908-.472a2.409,2.409,0,0,1,1.161.208A7.663,7.663,0,0,1,36.02.841a11.582,11.582,0,0,1,1.294,1,10.011,10.011,0,0,1,1.039,1.1,3.614,3.614,0,0,1,.585,1.02.653.653,0,0,1-.057.708,17.183,17.183,0,0,0-1.7,2.181c-.633.925-1.284,1.964-1.945,3.125s-1.322,2.408-1.973,3.73-1.246,2.653-1.785,3.966a39.971,39.971,0,0,0-1.341,3.853,18.647,18.647,0,0,0-.67,3.343c0,.161,0,.349-.009.576s-.019.4-.019.519a6.1,6.1,0,0,0,.094,1.322c.066.255.142.387.236.387.17,0,.33-.217.472-.652a9.339,9.339,0,0,0,.34-1.5A13.664,13.664,0,0,1,31.7,22a40.438,40.438,0,0,1,2.134-4.145Q35.09,15.7,36.643,13.5t3.144-4.2q1.6-2,3.107-3.683A36.9,36.9,0,0,1,45.6,2.843a2.427,2.427,0,0,1,1.473-.585,5.293,5.293,0,0,1,1.992.425,7.732,7.732,0,0,1,1.841,1.048,4.711,4.711,0,0,1,1.209,1.313A1.177,1.177,0,0,1,52.2,6.3c-.246.453-.444.831-.6,1.143a8.447,8.447,0,0,0-.415.916c-.1.3-.208.614-.3.944s-.208.737-.312,1.209l-.557,1.567c-.264.746-.557,1.624-.9,2.625s-.68,2.058-1.029,3.163-.689,2.247-1.029,3.409-.633,2.295-.9,3.39-.472,2.134-.642,3.088a15.241,15.241,0,0,0-.246,2.483,4.443,4.443,0,0,0,.132,1.152c.151.746.482,1.124.982,1.124a1.577,1.577,0,0,0,.765-.179c.236-.113.5-.255.8-.415a1.205,1.205,0,0,0,.293-.142c.085-.057.189-.123.293-.179a22.975,22.975,0,0,1,6.421-2.3,35.8,35.8,0,0,1,6.78-.642,56.3,56.3,0,0,1,8.064.585q4.022.595,7.743,1.237c1.983.359,3.843.67,5.6.935a32.309,32.309,0,0,0,4.787.4,11.809,11.809,0,0,0,3.966-.576,3.632,3.632,0,0,0,2.238-2.049,3.855,3.855,0,0,1,.831,1.313,4.614,4.614,0,0,1,.312,1.728,3.649,3.649,0,0,1-.6,2.03,2.971,2.971,0,0,1-1.907,1.265,9.608,9.608,0,0,1-1.473.255c-.5.047-1,.076-1.5.076-.718,0-1.53-.047-2.417-.132s-1.832-.217-2.814-.368S82.59,35,81.58,34.8s-2.011-.415-2.993-.633c-2.852-.633-5.637-1.152-8.375-1.567a52.208,52.208,0,0,0-7.658-.614A31.338,31.338,0,0,0,53.8,33.125a17.8,17.8,0,0,0-6.921,3.805v-.113c-.132.2-.406.274-.831.236a5.265,5.265,0,0,1-1.36-.33,8.288,8.288,0,0,1-1.341-.614,1.661,1.661,0,0,1-.746-.68v.028a14.14,14.14,0,0,1-1.369-3.7,17.554,17.554,0,0,1-.4-3.7,23.432,23.432,0,0,1,.34-3.994c.236-1.3.5-2.634.8-3.994.047-.161.179-.548.406-1.161s.51-1.379.84-2.276.68-1.87,1.076-2.918.774-2.1,1.152-3.125.746-2,1.086-2.908.614-1.634.831-2.21c.1-.236.179-.406.227-.529a.749.749,0,0,0,.066-.236c0-.076-.047-.1-.132-.085a.814.814,0,0,0-.312.161,4.656,4.656,0,0,0-.378.312c-.123.113-.236.227-.321.321q-2.2,2.564-4.57,5.467a65.076,65.076,0,0,0-4.476,6.138,47.943,47.943,0,0,0-3.645,6.751,26.778,26.778,0,0,0-2.04,7.327c-.113.179-.463.208-1.058.085a14.313,14.313,0,0,1-2.011-.557,18.348,18.348,0,0,1-2.1-.869,4.442,4.442,0,0,1-1.265-.812Zm29.555-4.514c-.028,0-.038.009-.038.019s-.019.009-.066.009v.3c.047.8.4,1.209,1.048,1.209a2.285,2.285,0,0,0,1.18-.359V25.4a14.854,14.854,0,0,0,1.747-1.369c.595-.538,1.076-1,1.454-1.369.623-.689,1.19-1.36,1.681-2.021s.916-1.294,1.284-1.9a.486.486,0,0,1,.538-.142,1.223,1.223,0,0,1,.557.415,2.1,2.1,0,0,1,.359.727,1.24,1.24,0,0,1-.009.765c-.4.585-.9,1.275-1.511,2.049a21.218,21.218,0,0,1-2.021,2.228,15.793,15.793,0,0,1-2.332,1.851,5.653,5.653,0,0,1-2.436.944,3.873,3.873,0,0,1-1.634-.17,4.907,4.907,0,0,1-1.473-.784,5.462,5.462,0,0,1-1.086-1.161,2.546,2.546,0,0,1-.482-1.3,7.016,7.016,0,0,1,.132-1.822,14.886,14.886,0,0,1,.576-2.125,14.342,14.342,0,0,1,.944-2.153,11.845,11.845,0,0,1,1.3-1.945,9.225,9.225,0,0,1,1.586-1.52,4.546,4.546,0,0,1,1.832-.84,2.928,2.928,0,0,1,1.1.038,5.267,5.267,0,0,1,1.152.415,4.086,4.086,0,0,1,.991.7,3.79,3.79,0,0,1,.7.85,1.785,1.785,0,0,1,.066,1.265,10.2,10.2,0,0,1-.387,1.067,15.71,15.71,0,0,1-1.161,1.917,12.742,12.742,0,0,1-1.52,1.766,11.031,11.031,0,0,1-1.86,1.445,8.4,8.4,0,0,1-2.191.944Zm3.229-6.572a.861.861,0,0,1-.161.217.781.781,0,0,0-.161.255c-.312.472-.661,1.01-1.048,1.605a16.274,16.274,0,0,0-1.01,1.756,9.271,9.271,0,0,0,2.04-1.369,8.361,8.361,0,0,0,1.416-1.643v.123c.113-.217.208-.4.293-.529s.17-.255.236-.359v.057L60,17.328a3.311,3.311,0,0,0,.4-.595.261.261,0,0,0-.264-.293,1.342,1.342,0,0,0-.623.1,3.159,3.159,0,0,0-.746.415A2.073,2.073,0,0,0,58.144,17.62Zm5.883,3.919a.561.561,0,0,1-.538.076,1.176,1.176,0,0,1-.51-.368,1.784,1.784,0,0,1-.34-.652,1.308,1.308,0,0,1-.019-.737c.765-1.18,1.53-2.3,2.3-3.39A27.211,27.211,0,0,1,67.482,13.4a1.548,1.548,0,0,1,2.172-.444,1.958,1.958,0,0,1,.689.67,1.625,1.625,0,0,1-.085,1.841v-.028a4.45,4.45,0,0,0-.614,1.369,5.272,5.272,0,0,0-.17,1.313,10.55,10.55,0,0,0,.057,1.076q.042.538.113,1.076c.038.33.076.652.094.944s.038.6.038.944a6.565,6.565,0,0,0,2.313-1.039,14.646,14.646,0,0,0,2.03-1.794.59.59,0,0,1,.585-.151,1.138,1.138,0,0,1,.567.387,2,2,0,0,1,.378.68,1.1,1.1,0,0,1,0,.737,5.154,5.154,0,0,1-1.161,1.341,7.528,7.528,0,0,1-1.464.925,8.84,8.84,0,0,1-1.671.6c-.576.151-1.143.274-1.709.368l.028-.472a6.22,6.22,0,0,1-.85,2.04A4.255,4.255,0,0,1,67,27.29a4.882,4.882,0,0,1-1.9.5,1.679,1.679,0,0,1-1.388-.585,2.227,2.227,0,0,1-.472-1.416,2.73,2.73,0,0,1,.132-.888,1.712,1.712,0,0,1,.387-.68v.028a4.727,4.727,0,0,1,1.5-1.01,13.17,13.17,0,0,1,1.634-.519c-.038-.312-.094-.642-.161-.991s-.132-.68-.2-1.01l-.2-1.1c-.019-.094-.038-.132-.047-.113s0-.019.019-.123l-.519.472c-.312.274-.6.538-.906.8s-.576.519-.859.793Zm2.087,3.777c.132-.123.227-.208.293-.264a1.066,1.066,0,0,0,.2-.264l-.028.028a7.128,7.128,0,0,0-1.8.737c-.387.255-.585.463-.585.614,0,.217.179.274.519.17A4.281,4.281,0,0,0,66.113,25.316ZM78,10.369a7.4,7.4,0,0,0-.925-.1c-.236-.009-.415-.019-.557-.019a.789.789,0,0,1-.33-.047.428.428,0,0,1-.208-.189q-.17-.17.028-.4a2.081,2.081,0,0,1,.529-.425,2.956,2.956,0,0,1,.718-.34,1.894,1.894,0,0,1,.652-.132h.718a1.631,1.631,0,0,0,.246-.4,7.477,7.477,0,0,0,.293-.737c.094-.293.2-.595.293-.916s.179-.633.246-.916a4.138,4.138,0,0,0,.113-.737.832.832,0,0,0-.047-.425v.17a1.2,1.2,0,0,1-.293-.84c.038-.208.274-.359.68-.453a2.482,2.482,0,0,1,1.341.368,7.918,7.918,0,0,1,1.539,1.048,5.237,5.237,0,0,1,1.124,1.294c.274.453.3.821.085,1.1V7.12l-.2.557-.689,1.246c.33.019.906.057,1.737.132s1.8.123,2.918.17,2.332.085,3.626.094,2.6-.028,3.89-.123a29.607,29.607,0,0,0,3.692-.472,12.231,12.231,0,0,0,3.022-.954,2.367,2.367,0,0,1-1,2.729,9.823,9.823,0,0,1-4.192,1.01c-.312.028-.8.047-1.473.066s-1.454.028-2.332.028S91.41,11.6,90.4,11.577s-2.021-.057-3-.094-1.926-.094-2.814-.161a18.851,18.851,0,0,1-2.238-.283c-.3.5-.661,1.124-1.058,1.888s-.831,1.605-1.275,2.512-.888,1.822-1.3,2.767-.821,1.841-1.18,2.682-.661,1.605-.916,2.257a11.1,11.1,0,0,0-.472,1.492,1.44,1.44,0,0,0,.33.859.885.885,0,0,0,.718.349,2.386,2.386,0,0,0,1.029-.246,1.91,1.91,0,0,0,.793-.755c.349-.548.718-1.124,1.1-1.709s.793-1.18,1.228-1.775c.283-.387.585-.831.916-1.313s.633-.916.916-1.3c.123-.142.3-.151.519-.038a2.468,2.468,0,0,1,1.058,1.246.575.575,0,0,1-.009.585c-.378.472-.708.888-1,1.256s-.557.708-.8,1.048c-.236.312-.482.623-.727.944s-.491.614-.718.906-.453.567-.661.812-.387.463-.538.633a6.071,6.071,0,0,1-1.256.973,4.316,4.316,0,0,1-1.294.567,1.974,1.974,0,0,1-1.039-.123,5.053,5.053,0,0,1-1.19-.6,5.793,5.793,0,0,1-1.133-.982,4.21,4.21,0,0,1-.784-1.3v.028a4.231,4.231,0,0,1-.255-1.681,9.76,9.76,0,0,1,.3-2.285,25.855,25.855,0,0,1,.8-2.531c.33-.878.7-1.775,1.114-2.682s.84-1.832,1.275-2.729v.028a13.218,13.218,0,0,1,.585-1.228A13.059,13.059,0,0,0,78,10.369Z" transform="translate(0.184 0.085)" fill="#f58634"/>
    </g>
  </g>
</svg>
